<svg width="80" height="80" viewBox="0 0 80 80" fill="none" xmlns="http://www.w3.org/2000/svg">
<path d="M40 52C36.8174 52 33.7652 50.7357 31.5147 48.4853C29.2643 46.2348 28 43.1826 28 40C28 36.8174 29.2643 33.7652 31.5147 31.5147C33.7652 29.2643 36.8174 28 40 28C43.1826 28 46.2348 29.2643 48.4853 31.5147C50.7357 33.7652 52 36.8174 52 40C52 43.1826 50.7357 46.2348 48.4853 48.4853C46.2348 50.7357 43.1826 52 40 52ZM40 56C44.2435 56 48.3131 54.3143 51.3137 51.3137C54.3143 48.3131 56 44.2435 56 40C56 35.7565 54.3143 31.6869 51.3137 28.6863C48.3131 25.6857 44.2435 24 40 24C35.7565 24 31.6869 25.6857 28.6863 28.6863C25.6857 31.6869 24 35.7565 24 40C24 44.2435 25.6857 48.3131 28.6863 51.3137C31.6869 54.3143 35.7565 56 40 56ZM40 8C40.5304 8 41.0391 8.21071 41.4142 8.58579C41.7893 8.96086 42 9.46957 42 10V18C42 18.5304 41.7893 19.0391 41.4142 19.4142C41.0391 19.7893 40.5304 20 40 20C39.4696 20 38.9609 19.7893 38.5858 19.4142C38.2107 19.0391 38 18.5304 38 18V10C38 9.46957 38.2107 8.96086 38.5858 8.58579C38.9609 8.21071 39.4696 8 40 8ZM40 60C40.5304 60 41.0391 60.2107 41.4142 60.5858C41.7893 60.9609 42 61.4696 42 62V70C42 70.5304 41.7893 71.0391 41.4142 71.4142C41.0391 71.7893 40.5304 72 40 72C39.4696 72 38.9609 71.7893 38.5858 71.4142C38.2107 71.0391 38 70.5304 38 70V62C38 61.4696 38.2107 60.9609 38.5858 60.5858C38.9609 60.2107 39.4696 60 40 60ZM72 40C72 40.5304 71.7893 41.0391 71.4142 41.4142C71.0391 41.7893 70.5304 42 70 42H62C61.4696 42 60.9609 41.7893 60.5858 41.4142C60.2107 41.0391 60 40.5304 60 40C60 39.4696 60.2107 38.9609 60.5858 38.5858C60.9609 38.2107 61.4696 38 62 38H70C70.5304 38 71.0391 38.2107 71.4142 38.5858C71.7893 38.9609 72 39.4696 72 40ZM20 40C20 40.5304 19.7893 41.0391 19.4142 41.4142C19.0391 41.7893 18.5304 42 18 42H10C9.46957 42 8.96086 41.7893 8.58579 41.4142C8.21071 41.0391 8 40.5304 8 40C8 39.4696 8.21071 38.9609 8.58579 38.5858C8.96086 38.2107 9.46957 38 10 38H18C18.5304 38 19.0391 38.2107 19.4142 38.5858C19.7893 38.9609 20 39.4696 20 40ZM62.628 17.372C63.0029 17.7471 63.2136 18.2557 63.2136 18.786C63.2136 19.3163 63.0029 19.8249 62.628 20.2L56.972 25.86C56.786 26.0457 56.5653 26.1929 56.3225 26.2933C56.0796 26.3937 55.8194 26.4453 55.5566 26.4451C55.0259 26.4447 54.517 26.2335 54.142 25.858C53.9563 25.672 53.8091 25.4513 53.7087 25.2085C53.6083 24.9656 53.5567 24.7054 53.5569 24.4426C53.5573 23.9119 53.7685 23.403 54.144 23.028L59.8 17.372C60.1751 16.9971 60.6837 16.7864 61.214 16.7864C61.7443 16.7864 62.2529 16.9971 62.628 17.372ZM25.856 54.144C26.2309 54.5191 26.4416 55.0277 26.4416 55.558C26.4416 56.0883 26.2309 56.5969 25.856 56.972L20.2 62.628C19.8228 62.9923 19.3176 63.1939 18.7932 63.1893C18.2688 63.1848 17.7672 62.9745 17.3964 62.6036C17.0255 62.2328 16.8152 61.7312 16.8107 61.2068C16.8061 60.6824 17.0077 60.1772 17.372 59.8L23.028 54.144C23.4031 53.7691 23.9117 53.5584 24.442 53.5584C24.9723 53.5584 25.4809 53.7691 25.856 54.144ZM62.628 62.628C62.2529 63.0029 61.7443 63.2136 61.214 63.2136C60.6837 63.2136 60.1751 63.0029 59.8 62.628L54.144 56.972C53.7797 56.5948 53.5781 56.0896 53.5827 55.5652C53.5872 55.0408 53.7975 54.5392 54.1684 54.1684C54.5392 53.7975 55.0408 53.5872 55.5652 53.5827C56.0896 53.5781 56.5948 53.7797 56.972 54.144L62.628 59.8C63.0029 60.1751 63.2136 60.6837 63.2136 61.214C63.2136 61.7443 63.0029 62.2529 62.628 62.628ZM25.856 25.86C25.4809 26.2349 24.9723 26.4456 24.442 26.4456C23.9117 26.4456 23.4031 26.2349 23.028 25.86L17.372 20.2C17.181 20.0155 17.0286 19.7948 16.9238 19.5508C16.819 19.3068 16.7638 19.0444 16.7615 18.7788C16.7592 18.5132 16.8098 18.2499 16.9104 18.0041C17.0109 17.7583 17.1594 17.535 17.3472 17.3472C17.535 17.1594 17.7583 17.0109 18.0041 16.9104C18.2499 16.8098 18.5132 16.7592 18.7788 16.7615C19.0444 16.7638 19.3068 16.819 19.5508 16.9238C19.7948 17.0286 20.0155 17.181 20.2 17.372L25.856 23.028C26.0423 23.2138 26.19 23.4345 26.2908 23.6775C26.3917 23.9204 26.4436 24.1809 26.4436 24.444C26.4436 24.7071 26.3917 24.9676 26.2908 25.2105C26.19 25.4535 26.0423 25.6742 25.856 25.86Z" fill="#F5D975"/>
</svg>
