<svg width="80" height="80" viewBox="0 0 80 80" fill="none" xmlns="http://www.w3.org/2000/svg">
<g clip-path="url(#clip0_26_814)">
<path d="M32.6526 39.6634C34.8184 39.6631 36.9626 40.0938 38.9604 40.9303C40.9581 41.7668 42.7695 42.9924 44.289 44.5357C45.8084 46.0791 47.0056 47.9093 47.8109 49.9199C48.6161 51.9304 49.0133 54.0811 48.9793 56.2466C48.9738 56.6052 49.051 56.9601 49.2051 57.284C49.3591 57.6078 49.5857 57.8918 49.8673 58.1138C50.1488 58.3358 50.4778 58.4899 50.8287 58.5641C51.1795 58.6383 51.5427 58.6306 51.8901 58.5417C52.9244 58.2767 54.0056 58.2515 55.0511 58.4679C56.0967 58.6843 57.079 59.1367 57.9232 59.7905C58.7673 60.4443 59.451 61.2823 59.922 62.2405C60.3931 63.1987 60.639 64.2518 60.6411 65.3196C60.6411 67.1753 59.9039 68.9551 58.5917 70.2673C57.2795 71.5795 55.4998 72.3167 53.644 72.3167H13.9936C12.7533 72.3097 11.5268 72.0554 10.3859 71.5688C9.24494 71.0821 8.21253 70.3728 7.349 69.4824C6.48548 68.592 5.80818 67.5383 5.35671 66.383C4.90525 65.2277 4.68869 63.994 4.71971 62.7541C4.75072 61.5141 5.02869 60.2927 5.53734 59.1614C6.046 58.0302 6.77513 57.0117 7.68209 56.1656C8.58905 55.3194 9.65564 54.6627 10.8194 54.2336C11.9833 53.8046 13.2209 53.612 14.4601 53.667C14.9976 53.6947 15.5281 53.5356 15.9617 53.2168C16.3953 52.898 16.7053 52.439 16.8391 51.9177C17.7439 48.4113 19.7882 45.3049 22.6506 43.0867C25.513 40.8686 29.0313 39.6644 32.6526 39.6634ZM53.5181 53.6577C52.9932 48.9283 50.8771 44.5175 47.5167 41.1485C44.1562 37.7795 39.7508 35.6523 35.0227 35.1155C30.2947 34.5787 25.5245 35.6642 21.4943 38.1941C17.4641 40.724 14.4131 44.5482 12.8414 49.0396C9.23995 49.3344 5.89211 51.0108 3.49868 53.718C1.10525 56.4252 -0.148215 59.9533 0.000663161 63.5638C0.149541 67.1742 1.68922 70.5871 4.29741 73.0881C6.9056 75.589 10.3801 76.9842 13.9936 76.9814H53.644C56.7369 76.9814 59.7032 75.7528 61.8902 73.5658C64.0772 71.3787 65.3059 68.4125 65.3059 65.3196C65.3059 62.2266 64.0772 59.2604 61.8902 57.0734C59.7032 54.8863 56.7369 53.6577 53.644 53.6577H53.5181Z" fill="#339AD3"/>
<path d="M48.4998 9.5C48.4998 8.83696 48.2364 8.20107 47.7676 7.73223C47.2987 7.26339 46.6628 7 45.9998 7C45.3367 7 44.7009 7.26339 44.232 7.73223C43.7632 8.20107 43.4998 8.83696 43.4998 9.5V14.5C43.4998 15.163 43.7632 15.7989 44.232 16.2678C44.7009 16.7366 45.3367 17 45.9998 17C46.6628 17 47.2987 16.7366 47.7676 16.2678C48.2364 15.7989 48.4998 15.163 48.4998 14.5V9.5ZM67.2148 19.32C67.4536 19.0894 67.644 18.8135 67.775 18.5085C67.9061 18.2035 67.975 17.8755 67.9779 17.5435C67.9808 17.2116 67.9175 16.8824 67.7918 16.5751C67.6661 16.2679 67.4805 15.9887 67.2458 15.754C67.011 15.5193 66.7319 15.3336 66.4247 15.2079C66.1174 15.0822 65.7882 15.019 65.4563 15.0219C65.1243 15.0248 64.7963 15.0937 64.4913 15.2247C64.1863 15.3558 63.9104 15.5462 63.6798 15.785L60.1398 19.32C59.6704 19.7894 59.4066 20.4261 59.4066 21.09C59.4066 21.7539 59.6704 22.3906 60.1398 22.86C60.6092 23.3294 61.2459 23.5932 61.9098 23.5932C62.5737 23.5932 63.2104 23.3294 63.6798 22.86L67.2148 19.32ZM28.3198 15.785C27.8483 15.3296 27.2168 15.0776 26.5613 15.0833C25.9058 15.089 25.2788 15.3519 24.8152 15.8155C24.3517 16.279 24.0888 16.906 24.0831 17.5615C24.0774 18.217 24.3294 18.8485 24.7848 19.32L28.3198 22.86C28.5522 23.0924 28.8282 23.2768 29.1319 23.4026C29.4356 23.5284 29.7611 23.5932 30.0898 23.5932C30.4185 23.5932 30.744 23.5284 31.0477 23.4026C31.3514 23.2768 31.6273 23.0924 31.8598 22.86C32.0922 22.6276 32.2766 22.3516 32.4024 22.0479C32.5282 21.7442 32.5929 21.4187 32.5929 21.09C32.5929 20.7613 32.5282 20.4358 32.4024 20.1321C32.2766 19.8284 32.0922 19.5524 31.8598 19.32L28.3198 15.785ZM36.9898 32.655C37.6112 31.3672 38.5016 30.2276 39.6009 29.3132C40.7002 28.3988 41.9828 27.7307 43.3622 27.3541C44.7416 26.9775 46.1857 26.901 47.5972 27.13C49.0086 27.3589 50.3546 27.8879 51.5442 28.6813C52.7338 29.4746 53.7395 30.5138 54.4934 31.7289C55.2472 32.9439 55.7317 34.3065 55.9142 35.7247C56.0967 37.1429 55.973 38.5837 55.5513 39.95C55.1296 41.3163 54.4198 42.5763 53.4698 43.645C54.4648 45.05 55.3298 46.555 56.0498 48.135C57.7443 46.604 59.0668 44.7063 59.9165 42.5866C60.7663 40.4669 61.1208 38.1812 60.9531 35.9037C60.7855 33.6261 60.0999 31.417 58.9489 29.4446C57.7978 27.4722 56.2116 25.7887 54.3112 24.5224C52.4107 23.2561 50.2462 22.4404 47.9827 22.1376C45.7192 21.8348 43.4164 22.0528 41.25 22.775C39.0835 23.4972 37.1105 24.7045 35.4814 26.305C33.8524 27.9054 32.6103 29.8567 31.8498 32.01C33.6098 32.065 35.3298 32.285 36.9898 32.655ZM59.4098 53.025C62.4098 54.1 65.0348 55.975 67.0198 58.385C67.292 58.1646 67.5148 57.8894 67.6739 57.5773C67.8329 57.2652 67.9246 56.9232 67.943 56.5734C67.9614 56.2236 67.9061 55.8739 67.7806 55.5468C67.6552 55.2198 67.4624 54.9228 67.2148 54.675L63.6798 51.14C63.3234 50.7815 62.8667 50.5394 62.3699 50.4458C61.8731 50.3521 61.3596 50.4113 60.8972 50.6155C60.4347 50.8196 60.045 51.1592 59.7794 51.5893C59.5139 52.0195 59.385 52.5201 59.4098 53.025ZM68.4998 34.5C67.8367 34.5 67.2009 34.7634 66.732 35.2322C66.2632 35.7011 65.9998 36.337 65.9998 37C65.9998 37.663 66.2632 38.2989 66.732 38.7678C67.2009 39.2366 67.8367 39.5 68.4998 39.5H73.4998C74.1628 39.5 74.7987 39.2366 75.2676 38.7678C75.7364 38.2989 75.9998 37.663 75.9998 37C75.9998 36.337 75.7364 35.7011 75.2676 35.2322C74.7987 34.7634 74.1628 34.5 73.4998 34.5H68.4998Z" fill="#F5D975"/>
</g>
<defs>
<clipPath id="clip0_26_814">
<rect width="80" height="80" fill="white"/>
</clipPath>
</defs>
</svg>
