<svg width="80" height="80" viewBox="0 0 80 80" fill="none" xmlns="http://www.w3.org/2000/svg">
<path d="M61.4457 36.7756C61.6585 37.8211 62.5114 38.6163 63.5692 38.7556C66.2401 39.1071 68.6591 40.4332 70.3439 42.4452C72.027 44.4552 72.8548 47.0015 72.6762 49.5682C72.4976 52.1354 71.3238 54.5544 69.372 56.3298C67.4184 58.1068 64.8326 59.1032 62.1363 59.1002H62.1335L20.8071 59.1002C20.8063 59.1002 20.8055 59.1002 20.8047 59.1002C19.0644 59.0972 17.3447 58.7482 15.7512 58.0763C14.1571 57.4041 12.7251 56.4238 11.541 55.1988C10.3569 53.9739 9.4455 52.5303 8.85886 50.9579C8.27229 49.3857 8.02183 47.7154 8.12137 46.0485C8.22091 44.3816 8.66858 42.7496 9.43942 41.2522C10.2104 39.7546 11.2893 38.4214 12.6135 37.3366C13.938 36.2517 15.4794 35.4388 17.1447 34.9507C18.81 34.4626 20.5614 34.3106 22.2907 34.5048C23.3762 34.6266 24.4152 34.0296 24.8565 33.0304C26.4724 29.3717 29.2527 26.3004 32.8028 24.2756C36.3538 22.2502 40.4831 21.382 44.585 21.8045C48.6867 22.227 52.5333 23.9164 55.5648 26.6147C58.5954 29.312 60.6516 32.8744 61.4457 36.7756Z" stroke="#339AD3" stroke-width="5" stroke-linejoin="round"/>
</svg>
