<svg width="80" height="80" viewBox="0 0 80 80" fill="none" xmlns="http://www.w3.org/2000/svg">
<path d="M59.1528 24.5967C59.3607 25.6447 60.2116 26.4447 61.2704 26.5877C63.6594 26.9103 65.8363 28.1287 67.3603 29.9959C68.8842 31.863 69.6413 34.2394 69.4782 36.6436C69.3152 39.0479 68.2442 41.3004 66.482 42.9448C64.7199 44.5893 62.3983 45.5028 59.9876 45.5H59.9848L21.9839 45.5C21.9831 45.5 21.9823 45.5 21.9816 45.5C20.4171 45.4972 18.8696 45.1754 17.4338 44.5543C15.9973 43.9328 14.7028 43.0247 13.6296 41.8857C12.5563 40.7467 11.727 39.4007 11.1922 37.9301C10.6574 36.4596 10.4285 34.8954 10.5194 33.3333C10.6103 31.7712 11.0192 30.2441 11.721 28.8455C12.4227 27.4469 13.4027 26.2061 14.6008 25.1992C15.799 24.1923 17.1901 23.4405 18.689 22.9898C20.1879 22.5391 21.7631 22.399 23.3181 22.5781C24.4145 22.7044 25.464 22.0968 25.9004 21.083C27.3773 17.6523 29.9133 14.7839 33.1377 12.8971C36.362 11.0104 40.1056 10.2044 43.821 10.597C47.5364 10.9896 51.0287 12.5602 53.7872 15.0792L55.4347 13.275L53.7872 15.0792C56.5457 17.5981 58.4258 20.9332 59.1528 24.5967Z" stroke="#339AD3" stroke-width="5" stroke-linejoin="round"/>
<mask id="path-2-inside-1_22_1030" fill="white">
<path d="M25.7141 53.1762C25.4969 52.6923 25.099 52.3154 24.6075 52.128C24.3634 52.0353 24.1036 51.9922 23.8431 52.0012C23.5825 52.0101 23.3262 52.071 23.0889 52.1802C22.8516 52.2894 22.6379 52.4449 22.4601 52.6378C22.2822 52.8306 22.1436 53.0571 22.0523 53.3041L16.1009 69.3609C15.9393 69.8537 15.9728 70.3908 16.1943 70.8592C16.4159 71.3277 16.8082 71.691 17.289 71.8729C17.7697 72.0547 18.3015 72.041 18.7724 71.8346C19.2434 71.6282 19.6169 71.2451 19.8146 70.7658L25.766 54.7091C25.95 54.2113 25.9313 53.6601 25.7141 53.1762Z"/>
<path d="M37.6169 53.1762C37.3997 52.6923 37.0017 52.3154 36.5102 52.128C36.2661 52.0353 36.0064 51.9922 35.7458 52.0012C35.4853 52.0101 35.229 52.071 34.9917 52.1802C34.7544 52.2894 34.5407 52.4449 34.3628 52.6378C34.185 52.8306 34.0464 53.0571 33.9551 53.3041L28.0037 69.3609C27.8421 69.8537 27.8756 70.3908 28.0971 70.8592C28.3186 71.3277 28.711 71.691 29.1918 71.8729C29.6725 72.0547 30.2042 72.041 30.6752 71.8346C31.1462 71.6282 31.5197 71.2451 31.7174 70.7658L37.6688 54.7091C37.8527 54.2113 37.8341 53.6601 37.6169 53.1762Z"/>
<path d="M49.5197 53.1762C49.3025 52.6923 48.9045 52.3154 48.413 52.128C48.1689 52.0353 47.9092 51.9922 47.6486 52.0012C47.3881 52.0101 47.1318 52.071 46.8945 52.1802C46.6572 52.2894 46.4435 52.4449 46.2656 52.6378C46.0877 52.8306 45.9492 53.0571 45.8579 53.3041L39.9065 69.3609C39.7449 69.8537 39.7783 70.3908 39.9999 70.8592C40.2214 71.3277 40.6138 71.691 41.0945 71.8729C41.5753 72.0547 42.107 72.041 42.578 71.8346C43.049 71.6282 43.4225 71.2451 43.6202 70.7658L49.5716 54.7091C49.7555 54.2113 49.7369 53.6601 49.5197 53.1762Z"/>
<path d="M61.4225 53.1762C61.2053 52.6923 60.8073 52.3154 60.3158 52.128C60.0717 52.0353 59.812 51.9922 59.5514 52.0012C59.2908 52.0101 59.0346 52.071 58.7973 52.1802C58.56 52.2894 58.3463 52.4449 58.1684 52.6378C57.9905 52.8306 57.852 53.0571 57.7607 53.3041L51.8093 69.3609C51.6476 69.8537 51.6811 70.3908 51.9027 70.8592C52.1242 71.3277 52.5166 71.691 52.9973 71.8729C53.4781 72.0547 54.0098 72.041 54.4808 71.8346C54.9517 71.6282 55.3253 71.2451 55.5229 70.7658L61.4743 54.7091C61.6583 54.2113 61.6397 53.6601 61.4225 53.1762Z"/>
</mask>
<path d="M24.6075 52.128L26.3888 47.4561L26.3822 47.4535L24.6075 52.128ZM25.766 54.7091L30.4543 56.4468L30.4559 56.4424L25.766 54.7091ZM19.8146 70.7658L24.4369 72.6722L24.4714 72.5885L24.5029 72.5035L19.8146 70.7658ZM18.7724 71.8346L20.7797 76.414H20.7797L18.7724 71.8346ZM17.289 71.8729L19.0582 67.1964L19.0582 67.1964L17.289 71.8729ZM16.1943 70.8592L11.6743 72.997L16.1943 70.8592ZM16.1009 69.3609L11.4126 67.6232L11.3795 67.7124L11.3499 67.8028L16.1009 69.3609ZM22.0523 53.3041L26.7406 55.0418L26.7423 55.0375L22.0523 53.3041ZM22.4601 52.6378L18.7846 49.2479L18.7846 49.2479L22.4601 52.6378ZM23.0889 52.1802L20.9982 47.6383L20.9982 47.6383L23.0889 52.1802ZM23.8431 52.0012L23.6712 47.0041H23.6712L23.8431 52.0012ZM36.5102 52.128L38.2916 47.4561L38.285 47.4535L36.5102 52.128ZM37.6688 54.7091L42.3571 56.4468L42.3587 56.4424L37.6688 54.7091ZM31.7174 70.7658L36.3397 72.6722L36.3742 72.5885L36.4057 72.5035L31.7174 70.7658ZM30.6752 71.8346L28.6679 67.2552L28.6679 67.2552L30.6752 71.8346ZM29.1918 71.8729L30.961 67.1964L30.961 67.1964L29.1918 71.8729ZM28.0037 69.3609L23.3154 67.6232L23.2823 67.7124L23.2527 67.8028L28.0037 69.3609ZM33.9551 53.3041L38.6434 55.0418L38.645 55.0375L33.9551 53.3041ZM34.3628 52.6378L30.6874 49.2479L30.6874 49.2479L34.3628 52.6378ZM34.9917 52.1802L32.901 47.6383V47.6383L34.9917 52.1802ZM35.7458 52.0012L35.5739 47.0041H35.5739L35.7458 52.0012ZM48.413 52.128L50.1944 47.4561L50.1878 47.4535L48.413 52.128ZM49.5716 54.7091L54.2599 56.4468L54.2615 56.4424L49.5716 54.7091ZM43.6202 70.7658L48.2425 72.6722L48.277 72.5885L48.3085 72.5035L43.6202 70.7658ZM39.9999 70.8592L35.4799 72.997L35.4799 72.997L39.9999 70.8592ZM39.9065 69.3609L35.2182 67.6232L35.1851 67.7124L35.1554 67.8028L39.9065 69.3609ZM45.8579 53.3041L50.5462 55.0418L50.5478 55.0375L45.8579 53.3041ZM46.2656 52.6378L42.5902 49.2479L42.5902 49.2479L46.2656 52.6378ZM46.8945 52.1802L44.8038 47.6383V47.6383L46.8945 52.1802ZM47.6486 52.0012L47.8205 56.9982L47.6486 52.0012ZM60.3158 52.128L62.0972 47.4561L62.0906 47.4535L60.3158 52.128ZM61.4743 54.7091L66.1627 56.4468L66.1643 56.4424L61.4743 54.7091ZM55.5229 70.7658L60.1453 72.6722L60.1798 72.5885L60.2113 72.5035L55.5229 70.7658ZM51.9027 70.8592L47.3827 72.997L47.3827 72.997L51.9027 70.8592ZM51.8093 69.3609L47.121 67.6232L47.0879 67.7124L47.0582 67.8028L51.8093 69.3609ZM57.7607 53.3041L62.449 55.0418L62.4506 55.0375L57.7607 53.3041ZM58.1684 52.6378L54.493 49.2479V49.2479L58.1684 52.6378ZM58.7973 52.1802L56.7066 47.6383V47.6383L58.7973 52.1802ZM59.5514 52.0012L59.7233 56.9982V56.9982L59.5514 52.0012ZM22.8261 56.7999C22.0683 56.5109 21.4728 55.9371 21.1526 55.2237L30.2757 51.1287C29.5211 49.4475 28.1296 48.1198 26.3888 47.4561L22.8261 56.7999ZM21.1526 55.2237C20.8331 54.5119 20.8063 53.7056 21.0761 52.9757L30.4559 56.4424C31.0936 54.717 31.0295 52.8082 30.2757 51.1287L21.1526 55.2237ZM21.0777 52.9714L15.1263 69.0281L24.5029 72.5035L30.4543 56.4468L21.0777 52.9714ZM15.1923 68.8594C15.4833 68.1538 16.0408 67.5727 16.7652 67.2552L20.7797 76.414C22.4459 75.6836 23.7506 74.3363 24.4369 72.6722L15.1923 68.8594ZM16.7652 67.2552C17.4913 66.9369 18.3153 66.9153 19.0582 67.1964L15.5197 76.5494C17.2242 77.1942 19.1116 77.1452 20.7797 76.414L16.7652 67.2552ZM19.0582 67.1964C19.7994 67.4768 20.3872 68.03 20.7143 68.7215L11.6743 72.997C12.4445 74.6253 13.817 75.9052 15.5197 76.5494L19.0582 67.1964ZM20.7143 68.7215C21.0405 69.4113 21.0887 70.1971 20.852 70.9189L11.3499 67.8028C10.7899 69.5104 10.905 71.3703 11.6743 72.997L20.7143 68.7215ZM20.7893 71.0986L26.7406 55.0418L17.364 51.5664L11.4126 67.6232L20.7893 71.0986ZM26.7423 55.0375C26.6079 55.4011 26.4026 55.738 26.1355 56.0276L18.7846 49.2479C18.1617 49.9233 17.6794 50.713 17.3624 51.5708L26.7423 55.0375ZM26.1355 56.0276C25.8682 56.3174 25.544 56.5544 25.1796 56.7221L20.9982 47.6383C20.1593 48.0245 19.4076 48.5724 18.7846 49.2479L26.1355 56.0276ZM25.1796 56.7221C24.8151 56.8899 24.4192 56.9843 24.0149 56.9982L23.6712 47.0041C22.7457 47.0359 21.8373 47.252 20.9982 47.6383L25.1796 56.7221ZM24.0149 56.9982C23.6106 57.0121 23.2087 56.9451 22.8327 56.8024L26.3822 47.4535C25.518 47.1254 24.5966 46.9723 23.6712 47.0041L24.0149 56.9982ZM34.7289 56.7999C33.9711 56.5109 33.3756 55.9371 33.0553 55.2237L42.1785 51.1287C41.4239 49.4475 40.0324 48.1198 38.2916 47.4561L34.7289 56.7999ZM33.0553 55.2237C32.7359 54.5119 32.7091 53.7056 32.9788 52.9757L42.3587 56.4424C42.9964 54.717 42.9323 52.8082 42.1785 51.1287L33.0553 55.2237ZM32.9805 52.9714L27.0291 69.0281L36.4057 72.5035L42.3571 56.4468L32.9805 52.9714ZM27.0951 68.8594C27.3861 68.1538 27.9436 67.5727 28.6679 67.2552L32.6825 76.414C34.3487 75.6836 35.6534 74.3363 36.3397 72.6722L27.0951 68.8594ZM28.6679 67.2552C29.3941 66.9369 30.2181 66.9153 30.961 67.1964L27.4225 76.5494C29.127 77.1942 31.0144 77.1452 32.6825 76.414L28.6679 67.2552ZM30.961 67.1964C31.7022 67.4768 32.29 68.03 32.6171 68.7215L23.5771 72.997C24.3473 74.6253 25.7198 75.9052 27.4225 76.5494L30.961 67.1964ZM32.6171 68.7215C32.9433 69.4113 32.9915 70.197 32.7548 70.9189L23.2527 67.8028C22.6927 69.5104 22.8078 71.3703 23.5771 72.997L32.6171 68.7215ZM32.692 71.0986L38.6434 55.0418L29.2668 51.5664L23.3154 67.6232L32.692 71.0986ZM38.645 55.0375C38.5107 55.4011 38.3054 55.738 38.0383 56.0276L30.6874 49.2479C30.0645 49.9233 29.5822 50.713 29.2652 51.5707L38.645 55.0375ZM38.0382 56.0277C37.771 56.3174 37.4468 56.5544 37.0824 56.7221L32.901 47.6383C32.062 48.0245 31.3104 48.5724 30.6874 49.2479L38.0382 56.0277ZM37.0824 56.7221C36.7179 56.8899 36.322 56.9843 35.9177 56.9982L35.5739 47.0041C34.6485 47.0359 33.7401 47.252 32.901 47.6383L37.0824 56.7221ZM35.9177 56.9982C35.5134 57.0121 35.1115 56.9451 34.7355 56.8024L38.285 47.4535C37.4208 47.1254 36.4994 46.9723 35.5739 47.0041L35.9177 56.9982ZM46.6316 56.7999C45.8739 56.5109 45.2784 55.9371 44.9581 55.2237L54.0813 51.1287C53.3266 49.4475 51.9352 48.1198 50.1944 47.4561L46.6316 56.7999ZM44.9581 55.2237C44.6387 54.512 44.6118 53.7057 44.8816 52.9757L54.2615 56.4424C54.8992 54.717 54.8351 52.8082 54.0813 51.1287L44.9581 55.2237ZM44.8832 52.9714L38.9318 69.0281L48.3085 72.5035L54.2599 56.4468L44.8832 52.9714ZM38.9979 68.8594C39.2889 68.1538 39.8464 67.5727 40.5707 67.2552L44.5853 76.414C46.2515 75.6836 47.5561 74.3363 48.2425 72.6722L38.9979 68.8594ZM40.5707 67.2552C41.2969 66.9369 42.1209 66.9153 42.8638 67.1964L39.3253 76.5494C41.0297 77.1942 42.9172 77.1452 44.5853 76.414L40.5707 67.2552ZM42.8638 67.1964C43.605 67.4768 44.1928 68.03 44.5198 68.7215L35.4799 72.997C36.25 74.6253 37.6226 75.9052 39.3253 76.5494L42.8638 67.1964ZM44.5199 68.7215C44.8461 69.4113 44.8943 70.197 44.6576 70.9189L35.1554 67.8028C34.5955 69.5104 34.7106 71.3703 35.4799 72.997L44.5199 68.7215ZM44.5948 71.0986L50.5462 55.0418L41.1696 51.5664L35.2182 67.6232L44.5948 71.0986ZM50.5478 55.0375C50.4134 55.4011 50.2082 55.738 49.941 56.0276L42.5902 49.2479C41.9673 49.9233 41.485 50.7131 41.168 51.5707L50.5478 55.0375ZM49.941 56.0277C49.6738 56.3174 49.3496 56.5544 48.9852 56.7221L44.8038 47.6383C43.9648 48.0245 43.2132 48.5724 42.5902 49.2479L49.941 56.0277ZM48.9852 56.7221C48.6207 56.8899 48.2248 56.9843 47.8205 56.9982L47.4767 47.0041C46.5513 47.0359 45.6429 47.252 44.8038 47.6383L48.9852 56.7221ZM47.8205 56.9982C47.4162 57.0121 47.0142 56.9451 46.6383 56.8024L50.1878 47.4535C49.3236 47.1254 48.4022 46.9723 47.4767 47.0041L47.8205 56.9982ZM58.5344 56.7999C57.7767 56.5109 57.1811 55.9371 56.8609 55.2237L65.984 51.1287C65.2294 49.4475 63.838 48.1198 62.0972 47.4561L58.5344 56.7999ZM56.8609 55.2237C56.5415 54.512 56.5146 53.7057 56.7844 52.9757L66.1643 56.4424C66.802 54.717 66.7378 52.8082 65.984 51.1287L56.8609 55.2237ZM56.786 52.9714L50.8346 69.0281L60.2113 72.5035L66.1627 56.4468L56.786 52.9714ZM50.9006 68.8595C51.1917 68.1538 51.7492 67.5727 52.4735 67.2552L56.488 76.414C58.1543 75.6836 59.4589 74.3363 60.1453 72.6722L50.9006 68.8595ZM52.4735 67.2552C53.1997 66.9369 54.0237 66.9153 54.7666 67.1964L51.2281 76.5494C52.9325 77.1942 54.8199 77.1452 56.488 76.414L52.4735 67.2552ZM54.7666 67.1964C55.5078 67.4768 56.0956 68.03 56.4226 68.7215L47.3827 72.997C48.1528 74.6253 49.5254 75.9052 51.2281 76.5494L54.7666 67.1964ZM56.4226 68.7215C56.7489 69.4113 56.7971 70.197 56.5603 70.9189L47.0582 67.8028C46.4982 69.5104 46.6134 71.3703 47.3827 72.997L56.4226 68.7215ZM56.4976 71.0986L62.449 55.0418L53.0723 51.5664L47.121 67.6232L56.4976 71.0986ZM62.4506 55.0375C62.3162 55.4011 62.111 55.738 61.8438 56.0276L54.493 49.2479C53.8701 49.9233 53.3877 50.713 53.0707 51.5708L62.4506 55.0375ZM61.8438 56.0276C61.5766 56.3174 61.2523 56.5544 60.888 56.7221L56.7066 47.6383C55.8676 48.0245 55.116 48.5724 54.493 49.2479L61.8438 56.0276ZM60.888 56.7221C60.5235 56.8899 60.1276 56.9843 59.7233 56.9982L59.3795 47.0041C58.4541 47.0359 57.5457 47.252 56.7066 47.6383L60.888 56.7221ZM59.7233 56.9982C59.319 57.0121 58.917 56.9451 58.541 56.8024L62.0906 47.4535C61.2264 47.1254 60.3049 46.9723 59.3795 47.0041L59.7233 56.9982Z" fill="#339AD3" mask="url(#path-2-inside-1_22_1030)"/>
</svg>
