<svg width="80" height="80" viewBox="0 0 80 80" fill="none" xmlns="http://www.w3.org/2000/svg">
<path d="M62.273 21.9157C61.4009 17.5193 59.1453 13.5173 55.8359 10.4947C52.5265 7.47209 48.3369 5.58746 43.8797 5.11636C39.4226 4.64526 34.9316 5.61239 31.0634 7.87636C27.1952 10.1403 24.1528 13.5824 22.3808 17.6992C20.3937 17.4703 18.3808 17.6494 16.4653 18.2255C14.5498 18.8016 12.7721 19.7625 11.2409 21.0496C9.70974 22.3366 8.45736 23.9227 7.56047 25.7105C6.66357 27.4984 6.14102 29.4506 6.02482 31.4474C5.90862 33.4443 6.20121 35.4439 6.88468 37.3237C7.56815 39.2036 8.6281 40.9242 9.99966 42.3801C11.3712 43.8361 13.0255 44.9968 14.8612 45.7912C16.697 46.5855 18.6756 46.9969 20.6758 47H40.624H60.5722C63.7686 47.0036 66.8468 45.7922 69.1835 43.6112C71.5201 41.4301 72.9404 38.4425 73.1566 35.2534C73.3728 32.0644 72.3689 28.9124 70.348 26.4359C68.3272 23.9593 65.4407 22.3435 62.273 21.9157ZM41.6739 9.2034C45.8061 9.20254 49.7937 10.7248 52.8742 13.4791C55.9547 16.2334 57.9119 20.0265 58.3716 24.1331C58.4287 24.649 58.6749 25.1255 59.0627 25.4707C59.4504 25.8158 59.9523 26.005 60.4714 26.0019H60.5722C62.7998 26.0019 64.9362 26.8868 66.5114 28.462C68.0865 30.0371 68.9714 32.1735 68.9714 34.4011C68.9714 36.6287 68.0865 38.7651 66.5114 40.3403C64.9362 41.9154 62.7998 42.8004 60.5722 42.8004H20.6758C19.1894 42.7996 17.7202 42.4833 16.3652 41.8723C15.0102 41.2613 13.8004 40.3696 12.8158 39.2561C11.8313 38.1426 11.0943 36.8328 10.6537 35.4132C10.2132 33.9937 10.0791 32.4967 10.2603 31.0215C10.4415 29.5462 10.9338 28.1262 11.7048 26.8554C12.4758 25.5847 13.5078 24.4921 14.7326 23.65C15.9573 22.8078 17.347 22.2354 18.8095 21.9704C20.2721 21.7055 21.7742 21.7541 23.2166 22.113C23.7311 22.2414 24.2752 22.1703 24.7395 21.914C25.2038 21.6577 25.5539 21.2352 25.7195 20.7314C26.8294 17.3766 28.9684 14.457 31.8326 12.3875C34.6967 10.3179 38.1403 9.20381 41.6739 9.2034Z" fill="#339AD3"/>
<path d="M36.1866 50.3728C35.7919 50.6165 35.4727 50.9653 35.2649 51.38L30.2649 61.38C30.0739 61.7611 29.9836 62.1848 30.0025 62.6107C30.0213 63.0366 30.1488 63.4506 30.3728 63.8134C30.5967 64.1761 30.9097 64.4756 31.2821 64.6833C31.6544 64.8909 32.0736 65 32.4999 65H36.7999L35.0749 71.895C34.939 72.4475 34.9956 73.0299 35.2353 73.5459C35.4751 74.0619 35.8837 74.4806 36.3937 74.733C36.9037 74.9853 37.4845 75.0562 38.0401 74.9338C38.5958 74.8115 39.0931 74.5032 39.4499 74.06L49.4499 61.56C49.7435 61.1924 49.9273 60.7494 49.9804 60.282C50.0335 59.8146 49.9536 59.3417 49.7499 58.9176C49.5462 58.4936 49.2271 58.1356 48.829 57.8848C48.431 57.6341 47.9703 57.5007 47.4999 57.5H43.4699L44.8699 53.29C44.995 52.9144 45.0291 52.5144 44.9694 52.123C44.9097 51.7316 44.7579 51.36 44.5265 51.0387C44.2951 50.7175 43.9907 50.4558 43.6384 50.2752C43.286 50.0946 42.8958 50.0003 42.4999 50H37.4999C37.036 50 36.5813 50.1291 36.1866 50.3728Z" fill="#F5D975"/>
</svg>
