<svg width="80" height="80" viewBox="0 0 80 80" fill="none" xmlns="http://www.w3.org/2000/svg">
<path d="M59.6939 25.6625C59.9034 26.7096 60.755 27.508 61.8135 27.6498C64.284 27.9805 66.5301 29.2291 68.0996 31.1357C69.6685 33.0416 70.4452 35.4634 70.2778 37.9105C70.1221 40.1872 69.154 41.872 67.1948 43.6849C65.3781 45.3657 62.9807 46.3026 60.4874 46.2998H60.4846L21.5335 46.2998C21.5327 46.2998 21.532 46.2998 21.5312 46.2998C19.916 46.297 18.3189 45.9676 16.8379 45.3323C15.3561 44.6967 14.0224 43.7687 12.9177 42.6062C12.8766 42.5629 12.8361 42.5204 12.7963 42.4785C11.4729 41.0867 10.8565 40.4383 10.4111 39.224C9.86176 37.7262 9.6268 36.1338 9.72014 34.5439C9.81347 32.954 10.2332 31.3989 10.9545 29.9737C11.6757 28.5485 12.6837 27.2826 13.9178 26.2543C15.1519 25.226 16.586 24.4572 18.1328 23.9961C19.6796 23.5349 21.3056 23.3915 22.9108 23.5748C24.0036 23.6996 25.0496 23.0955 25.4876 22.0866C27.0039 18.5947 29.6092 15.6709 32.9267 13.7462C36.2446 11.8213 40.0989 10.9979 43.9255 11.3988C47.752 11.7997 51.3458 13.4033 54.1821 15.9712C57.0181 18.5388 58.948 21.9353 59.6939 25.6625Z" stroke="#339AD3" stroke-width="5" stroke-linejoin="round"/>
<mask id="path-2-inside-1_22_1029" fill="white">
<path d="M18.9259 55.4866C18.7333 55.3032 18.4721 55.2002 18.1998 55.2002C17.9274 55.2002 17.6663 55.3032 17.4737 55.4866C17.2811 55.6699 17.1729 55.9187 17.1729 56.178V58.4034L15.1152 57.2848C14.8793 57.1634 14.6029 57.1347 14.3451 57.2048C14.0872 57.2749 13.8684 57.4382 13.7354 57.6599C13.6024 57.8816 13.5657 58.144 13.6332 58.3911C13.7006 58.6382 13.8669 58.8504 14.0965 58.9822L16.1297 60.0891L14.0965 61.1959C13.8669 61.3278 13.7006 61.54 13.6332 61.7871C13.5657 62.0342 13.6024 62.2966 13.7354 62.5183C13.8684 62.7399 14.0872 62.9033 14.3451 62.9734C14.6029 63.0435 14.8793 63.0147 15.1152 62.8933L17.1729 61.7709V64.0002C17.1729 64.2595 17.2811 64.5082 17.4737 64.6916C17.6663 64.875 17.9274 64.978 18.1998 64.978C18.4721 64.978 18.7333 64.875 18.9259 64.6916C19.1184 64.5082 19.2266 64.2595 19.2266 64.0002V61.7748L21.2844 62.8933C21.5203 63.0147 21.7967 63.0435 22.0545 62.9734C22.3123 62.9033 22.5311 62.7399 22.6642 62.5183C22.7972 62.2966 22.8339 62.0342 22.7664 61.7871C22.6989 61.54 22.5326 61.3278 22.303 61.1959L20.2699 60.0891L22.303 58.9822C22.5326 58.8504 22.6989 58.6382 22.7664 58.3911C22.8339 58.144 22.7972 57.8816 22.6642 57.6599C22.5311 57.4382 22.3123 57.2749 22.0545 57.2048C21.7967 57.1347 21.5203 57.1634 21.2844 57.2848L19.2266 58.4073V56.178C19.2266 55.9187 19.1184 55.6699 18.9259 55.4866Z"/>
<path d="M30.2211 63.3088C30.0285 63.1254 29.7673 63.0224 29.495 63.0224C29.2227 63.0224 28.9615 63.1254 28.7689 63.3088C28.5763 63.4922 28.4682 63.7409 28.4682 64.0002V66.2256L26.4104 65.107C26.1745 64.9856 25.8981 64.9569 25.6403 65.027C25.3824 65.0971 25.1636 65.2604 25.0306 65.4821C24.8976 65.7038 24.8609 65.9662 24.9284 66.2133C24.9959 66.4604 25.1622 66.6726 25.3917 66.8045L27.4249 67.9113L25.3917 69.0181C25.1622 69.15 24.9959 69.3622 24.9284 69.6093C24.8609 69.8564 24.8976 70.1188 25.0306 70.3405C25.1636 70.5622 25.3824 70.7255 25.6403 70.7956C25.8981 70.8657 26.1745 70.837 26.4104 70.7156L28.4682 69.5931V71.8224C28.4682 72.0817 28.5763 72.3304 28.7689 72.5138C28.9615 72.6972 29.2227 72.8002 29.495 72.8002C29.7673 72.8002 30.0285 72.6972 30.2211 72.5138C30.4136 72.3304 30.5218 72.0817 30.5218 71.8224V69.597L32.5796 70.7156C32.8155 70.837 33.0919 70.8657 33.3497 70.7956C33.6075 70.7255 33.8263 70.5622 33.9594 70.3405C34.0924 70.1188 34.1291 69.8564 34.0616 69.6093C33.9941 69.3622 33.8278 69.15 33.5982 69.0181L31.5651 67.9113L33.5982 66.8045C33.8346 66.6753 34.0075 66.462 34.0787 66.2116C34.15 65.9611 34.1138 65.6939 33.9782 65.4688C33.8425 65.2437 33.6186 65.0792 33.3555 65.0113C33.0925 64.9435 32.8119 64.9779 32.5755 65.107L30.5218 66.2295V64.0002C30.5218 63.7409 30.4136 63.4922 30.2211 63.3088Z"/>
<path d="M52.8115 63.3088C52.6189 63.1254 52.3578 63.0224 52.0854 63.0224C51.8131 63.0224 51.5519 63.1254 51.3593 63.3088C51.1668 63.4922 51.0586 63.7409 51.0586 64.0002V66.2256L49.0008 65.107C48.7649 64.9856 48.4885 64.9569 48.2307 65.027C47.9729 65.0971 47.7541 65.2604 47.621 65.4821C47.488 65.7038 47.4513 65.9662 47.5188 66.2133C47.5863 66.4604 47.7526 66.6726 47.9822 66.8045L50.0153 67.9113L47.9822 69.0181C47.7526 69.15 47.5863 69.3622 47.5188 69.6093C47.4513 69.8564 47.488 70.1188 47.621 70.3405C47.7541 70.5622 47.9729 70.7255 48.2307 70.7956C48.4885 70.8657 48.7649 70.837 49.0008 70.7156L51.0586 69.5931V71.8224C51.0586 72.0817 51.1668 72.3304 51.3593 72.5138C51.5519 72.6972 51.8131 72.8002 52.0854 72.8002C52.3578 72.8002 52.6189 72.6972 52.8115 72.5138C53.0041 72.3304 53.1123 72.0817 53.1123 71.8224V69.597L55.1701 70.7156C55.4059 70.837 55.6823 70.8657 55.9401 70.7956C56.198 70.7255 56.4168 70.5622 56.5498 70.3405C56.6828 70.1188 56.7195 69.8564 56.652 69.6093C56.5846 69.3622 56.4183 69.15 56.1887 69.0181L54.1555 67.9113L56.1887 66.8045C56.3057 66.7405 56.4084 66.6552 56.4908 66.5535C56.5733 66.4518 56.6339 66.3356 56.6691 66.2116C56.7044 66.0875 56.7137 65.9581 56.6964 65.8307C56.6792 65.7032 56.6358 65.5803 56.5686 65.4688C56.5014 65.3574 56.4119 65.2596 56.3051 65.1811C56.1982 65.1026 56.0762 65.0449 55.946 65.0113C55.8157 64.9777 55.6798 64.9689 55.546 64.9853C55.4121 65.0017 55.283 65.0431 55.1659 65.107L53.1123 66.2295V64.0002C53.1123 63.7409 53.0041 63.4922 52.8115 63.3088Z"/>
<path d="M41.5163 55.4866C41.3237 55.3032 41.0625 55.2002 40.7902 55.2002C40.5179 55.2002 40.2567 55.3032 40.0641 55.4866C39.8716 55.6699 39.7634 55.9187 39.7634 56.178V58.4034L37.7056 57.2848C37.4697 57.1634 37.1933 57.1347 36.9355 57.2048C36.6777 57.2749 36.4589 57.4382 36.3258 57.6599C36.1928 57.8816 36.1561 58.144 36.2236 58.3911C36.2911 58.6382 36.4574 58.8504 36.687 58.9822L38.7201 60.0891L36.687 61.1959C36.4574 61.3278 36.2911 61.54 36.2236 61.7871C36.1561 62.0342 36.1928 62.2966 36.3258 62.5183C36.4589 62.7399 36.6777 62.9033 36.9355 62.9734C37.1933 63.0435 37.4697 63.0147 37.7056 62.8933L39.7634 61.7709V64.0002C39.7634 64.2595 39.8716 64.5082 40.0641 64.6916C40.2567 64.875 40.5179 64.978 40.7902 64.978C41.0625 64.978 41.3237 64.875 41.5163 64.6916C41.7089 64.5082 41.817 64.2595 41.817 64.0002V61.7748L43.8748 62.8933C44.1107 63.0147 44.3871 63.0435 44.6449 62.9734C44.9028 62.9033 45.1216 62.7399 45.2546 62.5183C45.3876 62.2966 45.4243 62.0342 45.3568 61.7871C45.2893 61.54 45.123 61.3278 44.8935 61.1959L42.8603 60.0891L44.8935 58.9822C45.1298 58.8531 45.3027 58.6398 45.3739 58.3893C45.4452 58.1389 45.409 57.8717 45.2734 57.6466C45.1378 57.4215 44.9138 57.2569 44.6507 57.1891C44.3877 57.1212 44.1071 57.1557 43.8707 57.2848L41.817 58.4073V56.178C41.817 55.9187 41.7089 55.6699 41.5163 55.4866Z"/>
<path d="M64.1067 55.4866C63.9142 55.3032 63.653 55.2002 63.3806 55.2002C63.1083 55.2002 62.8471 55.3032 62.6546 55.4866C62.462 55.6699 62.3538 55.9187 62.3538 56.178V58.4034L60.296 57.2848C60.0601 57.1634 59.7838 57.1347 59.5259 57.2048C59.2681 57.2749 59.0493 57.4382 58.9163 57.6599C58.7832 57.8816 58.7465 58.144 58.814 58.3911C58.8815 58.6382 59.0478 58.8504 59.2774 58.9822L61.3105 60.0891L59.2774 61.1959C59.157 61.2579 59.0508 61.3422 58.965 61.4438C58.8793 61.5454 58.8158 61.6624 58.7782 61.7877C58.7406 61.913 58.7298 62.0443 58.7462 62.1737C58.7627 62.3031 58.8061 62.4281 58.8741 62.5412C58.942 62.6544 59.033 62.7535 59.1417 62.8327C59.2504 62.9119 59.3747 62.9696 59.5072 63.0024C59.6397 63.0352 59.7777 63.0425 59.9132 63.0237C60.0486 63.005 60.1788 62.9607 60.296 62.8933L62.3538 61.7709V64.0002C62.3538 64.2595 62.462 64.5082 62.6546 64.6916C62.8471 64.875 63.1083 64.978 63.3806 64.978C63.653 64.978 63.9142 64.875 64.1067 64.6916C64.2993 64.5082 64.4075 64.2595 64.4075 64.0002V61.7748L66.4653 62.8933C66.7011 63.0147 66.9775 63.0435 67.2354 62.9734C67.4932 62.9033 67.712 62.7399 67.845 62.5183C67.9781 62.2966 68.0147 62.0342 67.9473 61.7871C67.8798 61.54 67.7135 61.3278 67.4839 61.1959L65.4507 60.0891L67.4839 58.9822C67.7203 58.8531 67.8931 58.6398 67.9644 58.3893C68.0356 58.1389 67.9994 57.8717 67.8638 57.6466C67.7282 57.4215 67.5042 57.2569 67.2412 57.1891C66.9781 57.1212 66.6975 57.1557 66.4612 57.2848L64.4075 58.4073V56.178C64.4075 55.9187 64.2993 55.6699 64.1067 55.4866Z"/>
</mask>
<path d="M18.9259 55.4866C18.7333 55.3032 18.4721 55.2002 18.1998 55.2002C17.9274 55.2002 17.6663 55.3032 17.4737 55.4866C17.2811 55.6699 17.1729 55.9187 17.1729 56.178V58.4034L15.1152 57.2848C14.8793 57.1634 14.6029 57.1347 14.3451 57.2048C14.0872 57.2749 13.8684 57.4382 13.7354 57.6599C13.6024 57.8816 13.5657 58.144 13.6332 58.3911C13.7006 58.6382 13.8669 58.8504 14.0965 58.9822L16.1297 60.0891L14.0965 61.1959C13.8669 61.3278 13.7006 61.54 13.6332 61.7871C13.5657 62.0342 13.6024 62.2966 13.7354 62.5183C13.8684 62.7399 14.0872 62.9033 14.3451 62.9734C14.6029 63.0435 14.8793 63.0147 15.1152 62.8933L17.1729 61.7709V64.0002C17.1729 64.2595 17.2811 64.5082 17.4737 64.6916C17.6663 64.875 17.9274 64.978 18.1998 64.978C18.4721 64.978 18.7333 64.875 18.9259 64.6916C19.1184 64.5082 19.2266 64.2595 19.2266 64.0002V61.7748L21.2844 62.8933C21.5203 63.0147 21.7967 63.0435 22.0545 62.9734C22.3123 62.9033 22.5311 62.7399 22.6642 62.5183C22.7972 62.2966 22.8339 62.0342 22.7664 61.7871C22.6989 61.54 22.5326 61.3278 22.303 61.1959L20.2699 60.0891L22.303 58.9822C22.5326 58.8504 22.6989 58.6382 22.7664 58.3911C22.8339 58.144 22.7972 57.8816 22.6642 57.6599C22.5311 57.4382 22.3123 57.2749 22.0545 57.2048C21.7967 57.1347 21.5203 57.1634 21.2844 57.2848L19.2266 58.4073V56.178C19.2266 55.9187 19.1184 55.6699 18.9259 55.4866Z" stroke="#339AD3" stroke-width="10" stroke-linejoin="round" mask="url(#path-2-inside-1_22_1029)"/>
<path d="M30.2211 63.3088C30.0285 63.1254 29.7673 63.0224 29.495 63.0224C29.2227 63.0224 28.9615 63.1254 28.7689 63.3088C28.5763 63.4922 28.4682 63.7409 28.4682 64.0002V66.2256L26.4104 65.107C26.1745 64.9856 25.8981 64.9569 25.6403 65.027C25.3824 65.0971 25.1636 65.2604 25.0306 65.4821C24.8976 65.7038 24.8609 65.9662 24.9284 66.2133C24.9959 66.4604 25.1622 66.6726 25.3917 66.8045L27.4249 67.9113L25.3917 69.0181C25.1622 69.15 24.9959 69.3622 24.9284 69.6093C24.8609 69.8564 24.8976 70.1188 25.0306 70.3405C25.1636 70.5622 25.3824 70.7255 25.6403 70.7956C25.8981 70.8657 26.1745 70.837 26.4104 70.7156L28.4682 69.5931V71.8224C28.4682 72.0817 28.5763 72.3304 28.7689 72.5138C28.9615 72.6972 29.2227 72.8002 29.495 72.8002C29.7673 72.8002 30.0285 72.6972 30.2211 72.5138C30.4136 72.3304 30.5218 72.0817 30.5218 71.8224V69.597L32.5796 70.7156C32.8155 70.837 33.0919 70.8657 33.3497 70.7956C33.6075 70.7255 33.8263 70.5622 33.9594 70.3405C34.0924 70.1188 34.1291 69.8564 34.0616 69.6093C33.9941 69.3622 33.8278 69.15 33.5982 69.0181L31.5651 67.9113L33.5982 66.8045C33.8346 66.6753 34.0075 66.462 34.0787 66.2116C34.15 65.9611 34.1138 65.6939 33.9782 65.4688C33.8425 65.2437 33.6186 65.0792 33.3555 65.0113C33.0925 64.9435 32.8119 64.9779 32.5755 65.107L30.5218 66.2295V64.0002C30.5218 63.7409 30.4136 63.4922 30.2211 63.3088Z" stroke="#339AD3" stroke-width="10" stroke-linejoin="round" mask="url(#path-2-inside-1_22_1029)"/>
<path d="M52.8115 63.3088C52.6189 63.1254 52.3578 63.0224 52.0854 63.0224C51.8131 63.0224 51.5519 63.1254 51.3593 63.3088C51.1668 63.4922 51.0586 63.7409 51.0586 64.0002V66.2256L49.0008 65.107C48.7649 64.9856 48.4885 64.9569 48.2307 65.027C47.9729 65.0971 47.7541 65.2604 47.621 65.4821C47.488 65.7038 47.4513 65.9662 47.5188 66.2133C47.5863 66.4604 47.7526 66.6726 47.9822 66.8045L50.0153 67.9113L47.9822 69.0181C47.7526 69.15 47.5863 69.3622 47.5188 69.6093C47.4513 69.8564 47.488 70.1188 47.621 70.3405C47.7541 70.5622 47.9729 70.7255 48.2307 70.7956C48.4885 70.8657 48.7649 70.837 49.0008 70.7156L51.0586 69.5931V71.8224C51.0586 72.0817 51.1668 72.3304 51.3593 72.5138C51.5519 72.6972 51.8131 72.8002 52.0854 72.8002C52.3578 72.8002 52.6189 72.6972 52.8115 72.5138C53.0041 72.3304 53.1123 72.0817 53.1123 71.8224V69.597L55.1701 70.7156C55.4059 70.837 55.6823 70.8657 55.9401 70.7956C56.198 70.7255 56.4168 70.5622 56.5498 70.3405C56.6828 70.1188 56.7195 69.8564 56.652 69.6093C56.5846 69.3622 56.4183 69.15 56.1887 69.0181L54.1555 67.9113L56.1887 66.8045C56.3057 66.7405 56.4084 66.6552 56.4908 66.5535C56.5733 66.4518 56.6339 66.3356 56.6691 66.2116C56.7044 66.0875 56.7137 65.9581 56.6964 65.8307C56.6792 65.7032 56.6358 65.5803 56.5686 65.4688C56.5014 65.3574 56.4119 65.2596 56.3051 65.1811C56.1982 65.1026 56.0762 65.0449 55.946 65.0113C55.8157 64.9777 55.6798 64.9689 55.546 64.9853C55.4121 65.0017 55.283 65.0431 55.1659 65.107L53.1123 66.2295V64.0002C53.1123 63.7409 53.0041 63.4922 52.8115 63.3088Z" stroke="#339AD3" stroke-width="10" stroke-linejoin="round" mask="url(#path-2-inside-1_22_1029)"/>
<path d="M41.5163 55.4866C41.3237 55.3032 41.0625 55.2002 40.7902 55.2002C40.5179 55.2002 40.2567 55.3032 40.0641 55.4866C39.8716 55.6699 39.7634 55.9187 39.7634 56.178V58.4034L37.7056 57.2848C37.4697 57.1634 37.1933 57.1347 36.9355 57.2048C36.6777 57.2749 36.4589 57.4382 36.3258 57.6599C36.1928 57.8816 36.1561 58.144 36.2236 58.3911C36.2911 58.6382 36.4574 58.8504 36.687 58.9822L38.7201 60.0891L36.687 61.1959C36.4574 61.3278 36.2911 61.54 36.2236 61.7871C36.1561 62.0342 36.1928 62.2966 36.3258 62.5183C36.4589 62.7399 36.6777 62.9033 36.9355 62.9734C37.1933 63.0435 37.4697 63.0147 37.7056 62.8933L39.7634 61.7709V64.0002C39.7634 64.2595 39.8716 64.5082 40.0641 64.6916C40.2567 64.875 40.5179 64.978 40.7902 64.978C41.0625 64.978 41.3237 64.875 41.5163 64.6916C41.7089 64.5082 41.817 64.2595 41.817 64.0002V61.7748L43.8748 62.8933C44.1107 63.0147 44.3871 63.0435 44.6449 62.9734C44.9028 62.9033 45.1216 62.7399 45.2546 62.5183C45.3876 62.2966 45.4243 62.0342 45.3568 61.7871C45.2893 61.54 45.123 61.3278 44.8935 61.1959L42.8603 60.0891L44.8935 58.9822C45.1298 58.8531 45.3027 58.6398 45.3739 58.3893C45.4452 58.1389 45.409 57.8717 45.2734 57.6466C45.1378 57.4215 44.9138 57.2569 44.6507 57.1891C44.3877 57.1212 44.1071 57.1557 43.8707 57.2848L41.817 58.4073V56.178C41.817 55.9187 41.7089 55.6699 41.5163 55.4866Z" stroke="#339AD3" stroke-width="10" stroke-linejoin="round" mask="url(#path-2-inside-1_22_1029)"/>
<path d="M64.1067 55.4866C63.9142 55.3032 63.653 55.2002 63.3806 55.2002C63.1083 55.2002 62.8471 55.3032 62.6546 55.4866C62.462 55.6699 62.3538 55.9187 62.3538 56.178V58.4034L60.296 57.2848C60.0601 57.1634 59.7838 57.1347 59.5259 57.2048C59.2681 57.2749 59.0493 57.4382 58.9163 57.6599C58.7832 57.8816 58.7465 58.144 58.814 58.3911C58.8815 58.6382 59.0478 58.8504 59.2774 58.9822L61.3105 60.0891L59.2774 61.1959C59.157 61.2579 59.0508 61.3422 58.965 61.4438C58.8793 61.5454 58.8158 61.6624 58.7782 61.7877C58.7406 61.913 58.7298 62.0443 58.7462 62.1737C58.7627 62.3031 58.8061 62.4281 58.8741 62.5412C58.942 62.6544 59.033 62.7535 59.1417 62.8327C59.2504 62.9119 59.3747 62.9696 59.5072 63.0024C59.6397 63.0352 59.7777 63.0425 59.9132 63.0237C60.0486 63.005 60.1788 62.9607 60.296 62.8933L62.3538 61.7709V64.0002C62.3538 64.2595 62.462 64.5082 62.6546 64.6916C62.8471 64.875 63.1083 64.978 63.3806 64.978C63.653 64.978 63.9142 64.875 64.1067 64.6916C64.2993 64.5082 64.4075 64.2595 64.4075 64.0002V61.7748L66.4653 62.8933C66.7011 63.0147 66.9775 63.0435 67.2354 62.9734C67.4932 62.9033 67.712 62.7399 67.845 62.5183C67.9781 62.2966 68.0147 62.0342 67.9473 61.7871C67.8798 61.54 67.7135 61.3278 67.4839 61.1959L65.4507 60.0891L67.4839 58.9822C67.7203 58.8531 67.8931 58.6398 67.9644 58.3893C68.0356 58.1389 67.9994 57.8717 67.8638 57.6466C67.7282 57.4215 67.5042 57.2569 67.2412 57.1891C66.9781 57.1212 66.6975 57.1557 66.4612 57.2848L64.4075 58.4073V56.178C64.4075 55.9187 64.2993 55.6699 64.1067 55.4866Z" stroke="#339AD3" stroke-width="10" stroke-linejoin="round" mask="url(#path-2-inside-1_22_1029)"/>
</svg>
