<svg width="72" height="72" viewBox="0 0 72 72" fill="none" xmlns="http://www.w3.org/2000/svg">
<g clip-path="url(#clip0_26_815)">
<path d="M38.25 17.9999C34.4629 17.9994 30.772 19.1928 27.7021 21.4104C24.6322 23.628 22.3395 26.757 21.15 30.3524C21.0661 30.6432 20.9245 30.9141 20.7335 31.1489C20.5425 31.3836 20.3061 31.5774 20.0385 31.7187C19.7709 31.86 19.4775 31.9459 19.1759 31.9711C18.8743 31.9964 18.5708 31.9605 18.2833 31.8657C17.9959 31.771 17.7306 31.6192 17.5032 31.4194C17.2759 31.2197 17.0911 30.9762 16.96 30.7034C16.829 30.4306 16.7543 30.1342 16.7405 29.8319C16.7266 29.5295 16.7739 29.2275 16.8795 28.9439C18.4415 24.227 21.5203 20.1595 25.6359 17.3756C29.7516 14.5916 34.6727 13.2477 39.6321 13.5534C44.5914 13.859 49.3103 15.7971 53.0529 19.0654C56.7955 22.3336 59.3516 26.7484 60.3225 31.6214C63.7167 32.0799 66.8097 33.8113 68.9751 36.4649C71.1404 39.1186 72.2162 42.496 71.9845 45.9132C71.7528 49.3303 70.2309 52.5317 67.7272 54.8687C65.2234 57.2058 61.925 58.5038 58.5 58.4999H2.25C1.65326 58.4999 1.08097 58.2629 0.65901 57.8409C0.237053 57.419 0 56.8467 0 56.2499C0 55.6532 0.237053 55.0809 0.65901 54.6589C1.08097 54.237 1.65326 53.9999 2.25 53.9999H58.5C60.8869 54.0005 63.1764 53.0529 64.8646 51.3655C66.5529 49.6781 67.5017 47.3891 67.5023 45.0022C67.5028 42.6152 66.5552 40.3258 64.8678 38.6375C63.1804 36.9493 60.8914 36.0005 58.5045 35.9999H58.3875C57.8313 36.0033 57.2935 35.8005 56.878 35.4307C56.4625 35.0609 56.1987 34.5503 56.1375 33.9974C55.645 29.5979 53.5484 25.5341 50.2486 22.5829C46.9487 19.6317 42.677 18.0001 38.25 17.9999Z" fill="#339AD3"/>
<path d="M0.65901 36.659C0.237053 37.081 0 37.6533 0 38.25C0 38.8467 0.237053 39.419 0.65901 39.841C1.08097 40.2629 1.65326 40.5 2.25 40.5H33.75C34.3467 40.5 34.919 40.2629 35.341 39.841C35.7629 39.419 36 38.8467 36 38.25C36 37.6533 35.7629 37.081 35.341 36.659C34.919 36.2371 34.3467 36 33.75 36H2.25C1.65326 36 1.08097 36.2371 0.65901 36.659Z" fill="#A9D2F8"/>
<path d="M0.65901 45.659C0.237053 46.081 0 46.6533 0 47.25C0 47.8467 0.237053 48.419 0.65901 48.841C1.08097 49.2629 1.65326 49.5 2.25 49.5H42.75C43.3467 49.5 43.919 49.2629 44.341 48.841C44.7629 48.419 45 47.8467 45 47.25C45 46.6533 44.7629 46.081 44.341 45.659C43.919 45.2371 43.3467 45 42.75 45H2.25C1.65326 45 1.08097 45.2371 0.65901 45.659Z" fill="#A9D2F8"/>
</g>
<defs>
<clipPath id="clip0_26_815">
<rect width="72" height="72" fill="white"/>
</clipPath>
</defs>
</svg>
